<svg width="1200" height="260" viewBox="0 0 1200 260" xmlns="http://www.w3.org/2000/svg">

  <!-- Background -->
  <rect width="1200" height="260" fill="#0d1117"/>

  <!-- Particles -->
  <g fill="#1e3a5f">
    <circle cx="1120" cy="40" r="3"/>
    <circle cx="1080" cy="70" r="2"/>
    <circle cx="1040" cy="50" r="3"/>
    <circle cx="1000" cy="100" r="2"/>
    <circle cx="950" cy="60" r="3"/>
    <circle cx="900" cy="90" r="2"/>
    <circle cx="850" cy="40" r="3"/>
    <circle cx="800" cy="70" r="2"/>
    <circle cx="760" cy="55" r="3"/>
    <circle cx="700" cy="95" r="2"/>
    <circle cx="650" cy="65" r="3"/>
    <circle cx="600" cy="120" r="2"/>
    <circle cx="560" cy="80" r="3"/>
    <circle cx="500" cy="100" r="2"/>
    <circle cx="450" cy="60" r="3"/>
    <circle cx="400" cy="90" r="2"/>
    <circle cx="350" cy="40" r="3"/>
    <circle cx="300" cy="70" r="2"/>
    <circle cx="260" cy="55" r="3"/>
    <circle cx="200" cy="95" r="2"/>
    <circle cx="150" cy="65" r="3"/>
    <circle cx="100" cy="120" r="2"/>
  </g>

  <!-- Name (Glow Removed) -->
  <text x="60" y="110"
        font-size="64"
        font-family="Segoe UI, sans-serif"
        fill="#7ef3ff"
        font-weight="700">
    dotsharpfx
  </text>

  <!-- Subtitle -->
  <text x="60" y="160"
        font-size="22"
        font-family="Segoe UI, sans-serif"
        fill="#64748b">
    Senior .NET Engineer • C# • EFCore • Microservices • Cloud
  </text>

  <!-- Waves -->
  <path d="M0 200 Q300 240 600 200 T1200 200 V260 H0 Z" fill="#0f2a3a"/>
  <path d="M0 220 Q300 260 600 220 T1200 220 V260 H0 Z" fill="#133449"/>

</svg>
